{
  "extensionsUsed": [
    "KHR_materials_transmission",
    "KHR_materials_clearcoat",
    "KHR_materials_ior",
    "KHR_materials_specular",
    "KHR_materials_emissive_strength",
    "KHR_texture_transform"
  ],
  "accessors": [
    {
      "bufferView": 0,
      "componentType": 5126,
      "count": 642,
      "type": "VEC3",
      "max": [
        0.026891325,
        0.07499976,
        0.019776547
      ],
      "min": [
        -0.0294751,
        -2.3981454E-07,
        -0.025493946
      ]
    },
    {
      "bufferView": 1,
      "componentType": 5125,
      "count": 642,
      "type": "SCALAR",
      "max": [
        641.0
      ],
      "min": [
        0.0
      ]
    },
    {
      "bufferView": 2,
      "componentType": 5126,
      "count": 642,
      "type": "VEC3",
      "max": [
        0.9970136,
        0.9747949,
        0.99837095
      ],
      "min": [
        -0.9991151,
        -1.0,
        -0.96518004
      ]
    },
    {
      "bufferView": 3,
      "componentType": 5126,
      "count": 642,
      "type": "VEC2",
      "max": [
        0.93330795,
        0.9431479
      ],
      "min": [
        0.06410508,
        0.5760226
      ]
    }
  ],
  "asset": {
    "version": "2.0"
  },
  "buffers": [
    {
      "uri": "data:application/octet-stream;base64,",
      "byteLength": 7704
    },
    {
      "uri": "data:application/octet-stream;base64,",
      "byteLength": 2568
    },
    {
      "uri": "data:application/octet-stream;base64,",
      "byteLength": 7704
    },
    {
      "uri": "data:application/octet-stream;base64,",
      "byteLength": 5136
    },
    {
      "uri": "data:application/octet-stream;base64,",
      "byteLength": 168
    }
  ],
  "bufferViews": [
    {
      "buffer": 0,
      "byteLength": 7704,
      "target": 34962
    },
    {
      "buffer": 1,
      "byteLength": 2568,
      "target": 34963
    },
    {
      "buffer": 2,
      "byteLength": 7704,
      "target": 34962
    },
    {
      "buffer": 3,
      "byteLength": 5136,
      "target": 34962
    },
    {
      "buffer": 4,
      "byteLength": 168
    }
  ],
  "images": [
    {
      "mimeType": "image/png",
      "bufferView": 4
    }
  ],
  "materials": [
    {
      "name": "Material.001",
      "extensions": {
        "KHR_materials_transmission": {},
        "KHR_materials_clearcoat": {},
        "KHR_materials_ior": {
          "ior": 1.52
        },
        "KHR_materials_specular": {
          "specularFactor": 1.0,
          "specularColorFactor": [
            1.0,
            1.0,
            1.0
          ]
        }
      },
      "pbrMetallicRoughness": {
        "baseColorTexture": {
          "index": 0,
          "extensions": {
            "KHR_texture_transform": {
              "offset": [
                0.0,
                1.0
              ],
              "scale": [
                1.0,
                -1.0
              ]
            }
          }
        },
        "metallicFactor": 0.0,
        "roughnessFactor": 0.95770514
      }
    }
  ],
  "meshes": [
    {
      "primitives": [
        {
          "attributes": {
            "POSITION": 0,
            "NORMAL": 2,
            "TEXCOORD_0": 3
          },
          "indices": 1,
          "material": 0
        }
      ]
    }
  ],
  "nodes": [
    {
      "mesh": 0,
      "name": "Icosphere_Material.001_0"
    }
  ],
  "samplers": [
    {
      "magFilter": 9729,
      "minFilter": 9729
    }
  ],
  "scene": 0,
  "scenes": [
    {
      "nodes": [
        0
      ],
      "extensions": {}
    }
  ],
  "textures": [
    {
      "sampler": 0,
      "source": 0
    }
  ],
  "extensions": {}
}